<svg width="42" height="46" fill="none" xmlns="http://www.w3.org/2000/svg"><path fill-rule="evenodd" clip-rule="evenodd" d="m25.33 1.598 12.34 7.01C40.35 10.131 42 12.944 42 15.99v14.022c0 3.045-1.65 5.858-4.33 7.38l-12.34 7.011a8.782 8.782 0 0 1-8.66 0l-12.34-7.01C1.65 35.868 0 33.054 0 30.01V15.989c0-3.045 1.65-5.858 4.33-7.38l12.34-7.011a8.782 8.782 0 0 1 8.66 0Z" fill="#1452F0"/><path d="M14.472 24.378v5.098h3.07c3.224 0 5.14-2.328 5.252-5.098H27.8c-.12 5.772-4.227 9.34-9.922 9.464l-.307.004H9.584v-9.468h4.888ZM22.16 12.02c5.967 0 10.258 3.645 10.258 9.633 0 .21-.006.417-.016.622h-5.016c.02-.205.03-.412.03-.622 0-2.901-1.67-5.172-4.958-5.29l-.27-.004H19.09l-.001 5.915h-4.887V12.02h7.957Z" fill="#fff"/></svg>